<?xml version="1.0" encoding="UTF-8" standalone="no"?>
<!DOCTYPE svg PUBLIC "-//W3C//DTD SVG 1.1//EN" "http://www.w3.org/Graphics/SVG/1.1/DTD/svg11.dtd">
<svg width="100%" height="100%" viewBox="0 0 352 264" version="1.1" xmlns="http://www.w3.org/2000/svg" xmlns:xlink="http://www.w3.org/1999/xlink" xml:space="preserve" xmlns:serif="http://www.serif.com/" style="fill-rule:evenodd;clip-rule:evenodd;stroke-linejoin:round;stroke-miterlimit:2;">
    <g transform="matrix(1,0,0,1,-425.007,-359.498)">
        <g transform="matrix(1,0,0,1,-6269.37,-48.6749)">
            <g transform="matrix(1,0,0,1,6307.56,-289.792)">
                <path d="M733.332,716.279C734.463,711.891 733.501,707.226 730.726,703.644C727.95,700.062 723.673,697.965 719.142,697.965L710.2,697.965C677.873,697.965 649.425,719.302 640.375,750.336C625.218,802.314 602.395,880.579 589.198,925.832C586.735,934.28 588.392,943.396 593.673,950.436C598.953,957.476 607.24,961.619 616.04,961.619C616.041,961.619 616.042,961.619 616.043,961.619C647.844,961.619 675.616,940.101 683.556,909.307C698.909,849.769 723.17,755.686 733.332,716.279Z" style="fill:rgb(243,129,129);"/>
            </g>
            <g transform="matrix(-1,0,0,1,7432.44,-289.792)">
                <path d="M733.332,716.279C734.463,711.891 733.501,707.226 730.726,703.644C727.95,700.062 723.673,697.965 719.142,697.965L710.2,697.965C677.873,697.965 649.425,719.302 640.375,750.336C625.218,802.314 602.395,880.579 589.198,925.832C586.735,934.28 588.392,943.396 593.673,950.436C598.953,957.476 607.24,961.619 616.04,961.619C616.041,961.619 616.042,961.619 616.043,961.619C647.844,961.619 675.616,940.101 683.556,909.307C698.909,849.769 723.17,755.686 733.332,716.279Z" style="fill:rgb(34,51,59);"/>
            </g>
            <g transform="matrix(1,0,0,1,6569.22,266.188)">
                <path d="M319.59,283.662C317.068,292.803 308.753,299.135 299.271,299.137C289.789,299.139 281.472,292.811 278.946,283.671C265.984,237.02 250.555,181.358 244.908,160.462C243.718,156.059 244.646,151.353 247.419,147.731C250.192,144.109 254.493,141.985 259.055,141.985L339.125,141.985C343.686,141.985 347.988,144.109 350.761,147.731C353.534,151.353 354.462,156.059 353.272,160.462C347.602,181.441 332.437,237.051 319.59,283.662Z" style="fill:rgb(81,194,213);"/>
            </g>
        </g>
    </g>
</svg>
